<svg xmlns="http://www.w3.org/2000/svg" viewBox="0 0 16 16" shape-rendering="crispEdges">
  <path fill="#3a1f0d" d="M1 0h2v1H1zm11 0h2v1h-2zM1 1h1v1H1zm2 0h1v1H3zm8 0h1v1h-1zm2 0h1v1h-1zM1 2h1v1H1zm3 0h7v1H4zm9 0h1v1h-1zM1 3h1v1H1zm13 0h1v1h-1zM0 4h1v5H0zm15 0h1v5h-1zM1 9h1v1H1zm13 0h1v1h-1zM2 10h1v1H2zm11 0h1v1h-1zM3 11h1v3H3zm9 0h1v3h-1zM4 14h3v1H4zm5 0h3v1H9z"/>
  <path fill="#e08e3c" d="M2 1h1v1H2zm10 0h1v1h-1zM2 2h2v1H2zm9 0h2v1h-2zM2 3h12v1H2zM1 4h14v1H1zM1 5h1v2H1zm3 0h8v2H4zm10 0h1v2h-1zM1 7h7v1H1zm9 0h5v1h-5zM1 8h14v1H1zM2 9h12v1H2zM3 10h10v1H3zM4 11h1v2H4zm7 0h1v2h-1zM4 13h8v1H4z"/>
  <path fill="#1d3a25" d="M2 5h2v2H2zm10 0h2v2h-2z"/>
  <path fill="#d96b8a" d="M8 7h2v1H8z"/>
  <path fill="#f7e6c8" d="M5 11h6v2H5z"/>
</svg>
